<mxfile host="65bd71144e">
    <diagram name="Page-1" id="e7e014a7-5840-1c2e-5031-d8a46d1fe8dd">
        <mxGraphModel dx="1407" dy="904" grid="1" gridSize="10" guides="1" tooltips="1" connect="1" arrows="1" fold="1" page="1" pageScale="1" pageWidth="1169" pageHeight="826" background="none" math="0" shadow="0">
            <root>
                <mxCell id="0"/>
                <mxCell id="1" parent="0"/>
                <mxCell id="115" value="User" style="swimlane;whiteSpace=wrap;movable=0;" parent="1" vertex="1">
                    <mxGeometry x="164.5" y="128" width="280" height="570" as="geometry"/>
                </mxCell>
                <mxCell id="116" value="" style="ellipse;shape=startState;fillColor=#000000;strokeColor=#ff0000;" parent="115" vertex="1">
                    <mxGeometry x="125" y="40" width="30" height="30" as="geometry"/>
                </mxCell>
                <mxCell id="117" value="" style="edgeStyle=elbowEdgeStyle;elbow=horizontal;verticalAlign=bottom;endArrow=open;endSize=8;strokeColor=#FF0000;endFill=1;rounded=0;entryX=0.5;entryY=0;entryDx=0;entryDy=0;" parent="115" source="116" target="139" edge="1">
                    <mxGeometry x="100" y="40" as="geometry">
                        <mxPoint x="140" y="122" as="targetPoint"/>
                    </mxGeometry>
                </mxCell>
                <mxCell id="139" value="opens product page" style="rounded=1;whiteSpace=wrap;html=1;arcSize=40;fontColor=#000000;fillColor=#ffffc0;strokeColor=#ff0000;" vertex="1" parent="115">
                    <mxGeometry x="80" y="127" width="120" height="40" as="geometry"/>
                </mxCell>
                <mxCell id="119" value="App" style="swimlane;whiteSpace=wrap;movable=0;" parent="1" vertex="1">
                    <mxGeometry x="445" y="128" width="280" height="570" as="geometry"/>
                </mxCell>
                <mxCell id="122" value="" style="ellipse;shape=endState;fillColor=#000000;strokeColor=#ff0000" parent="119" vertex="1">
                    <mxGeometry x="125" y="522" width="30" height="30" as="geometry"/>
                </mxCell>
                <mxCell id="143" value="show info that no nutritional&lt;br&gt;values are present" style="rounded=1;whiteSpace=wrap;html=1;arcSize=40;fontColor=#000000;fillColor=#ffffc0;strokeColor=#ff0000;" vertex="1" parent="119">
                    <mxGeometry x="25" y="207" width="120" height="55" as="geometry"/>
                </mxCell>
                <mxCell id="144" value="" style="edgeStyle=orthogonalEdgeStyle;html=1;verticalAlign=bottom;endArrow=open;endSize=8;strokeColor=#ff0000;entryX=0.5;entryY=0;entryDx=0;entryDy=0;" edge="1" source="143" parent="119" target="122">
                    <mxGeometry relative="1" as="geometry">
                        <mxPoint x="85" y="275" as="targetPoint"/>
                    </mxGeometry>
                </mxCell>
                <mxCell id="146" value="list nutritional values" style="rounded=1;whiteSpace=wrap;html=1;arcSize=40;fontColor=#000000;fillColor=#ffffc0;strokeColor=#ff0000;" vertex="1" parent="119">
                    <mxGeometry x="125" y="268" width="120" height="40" as="geometry"/>
                </mxCell>
                <mxCell id="147" value="" style="edgeStyle=orthogonalEdgeStyle;html=1;verticalAlign=bottom;endArrow=open;endSize=8;strokeColor=#ff0000;entryX=0.5;entryY=0;entryDx=0;entryDy=0;" edge="1" source="146" parent="119" target="122">
                    <mxGeometry relative="1" as="geometry">
                        <mxPoint x="185" y="412" as="targetPoint"/>
                    </mxGeometry>
                </mxCell>
                <mxCell id="125" value="Firebase" style="swimlane;whiteSpace=wrap;movable=0;" parent="1" vertex="1">
                    <mxGeometry x="724.5" y="128" width="280" height="570" as="geometry"/>
                </mxCell>
                <mxCell id="129" value="&lt;font color=&quot;#000000&quot;&gt;Found?&lt;/font&gt;" style="rhombus;whiteSpace=wrap;html=1;fillColor=#ffffc0;strokeColor=#ff0000;" parent="125" vertex="1">
                    <mxGeometry x="100" y="210" width="80" height="48" as="geometry"/>
                </mxCell>
                <mxCell id="141" value="fetch information about&lt;br&gt;nutritional values" style="rounded=1;whiteSpace=wrap;html=1;arcSize=40;fontColor=#000000;fillColor=#ffffc0;strokeColor=#ff0000;" vertex="1" parent="125">
                    <mxGeometry x="80" y="118" width="120" height="57" as="geometry"/>
                </mxCell>
                <mxCell id="142" value="" style="edgeStyle=orthogonalEdgeStyle;html=1;verticalAlign=bottom;endArrow=open;endSize=8;strokeColor=#ff0000;entryX=0.5;entryY=0;entryDx=0;entryDy=0;" edge="1" source="141" parent="125" target="129">
                    <mxGeometry relative="1" as="geometry">
                        <mxPoint x="155.5" y="182" as="targetPoint"/>
                    </mxGeometry>
                </mxCell>
                <mxCell id="132" value="" style="edgeStyle=orthogonalEdgeStyle;html=1;align=left;verticalAlign=bottom;endArrow=open;endSize=8;strokeColor=#ff0000;exitX=1;exitY=0.5;exitDx=0;exitDy=0;entryX=1;entryY=0.5;entryDx=0;entryDy=0;" parent="1" source="129" target="146" edge="1">
                    <mxGeometry x="-1" relative="1" as="geometry">
                        <mxPoint x="710" y="420" as="targetPoint"/>
                        <mxPoint x="911.7500000000002" y="390" as="sourcePoint"/>
                        <Array as="points">
                            <mxPoint x="915" y="362"/>
                            <mxPoint x="915" y="416"/>
                        </Array>
                    </mxGeometry>
                </mxCell>
                <mxCell id="133" value="yes" style="edgeLabel;html=1;align=center;verticalAlign=middle;resizable=0;points=[];" parent="132" connectable="0" vertex="1">
                    <mxGeometry x="-0.6988" relative="1" as="geometry">
                        <mxPoint as="offset"/>
                    </mxGeometry>
                </mxCell>
                <mxCell id="137" value="" style="endArrow=classic;html=1;entryX=1;entryY=0.5;entryDx=0;entryDy=0;exitX=0;exitY=0.5;exitDx=0;exitDy=0;strokeColor=#FF0000;" parent="1" source="129" target="143" edge="1">
                    <mxGeometry width="50" height="50" relative="1" as="geometry">
                        <mxPoint x="750" y="400" as="sourcePoint"/>
                        <mxPoint x="610" y="363.0000000000001" as="targetPoint"/>
                    </mxGeometry>
                </mxCell>
                <mxCell id="138" value="no" style="edgeLabel;html=1;align=center;verticalAlign=middle;resizable=0;points=[];" parent="137" vertex="1" connectable="0">
                    <mxGeometry x="-0.7745" relative="1" as="geometry">
                        <mxPoint as="offset"/>
                    </mxGeometry>
                </mxCell>
                <mxCell id="140" value="" style="edgeStyle=orthogonalEdgeStyle;html=1;verticalAlign=bottom;endArrow=open;endSize=8;strokeColor=#ff0000;entryX=0;entryY=0.5;entryDx=0;entryDy=0;" edge="1" source="139" parent="1" target="141">
                    <mxGeometry relative="1" as="geometry">
                        <mxPoint x="789.5" y="274.9999999999998" as="targetPoint"/>
                    </mxGeometry>
                </mxCell>
            </root>
        </mxGraphModel>
    </diagram>
</mxfile>